<?xml version="1.0" encoding="utf-8"?>
<svg version="1.1" xmlns:xlink="http://www.w3.org/1999/xlink" width="18px" height="18px" viewBox="283 11  18 18" xmlns="http://www.w3.org/2000/svg">
  <path d="M 283.5 13  A 1.5 1.5 0 0 1 285 11.5 L 299 11.5  A 1.5 1.5 0 0 1 300.5 13 L 300.5 27  A 1.5 1.5 0 0 1 299 28.5 L 285 28.5  A 1.5 1.5 0 0 1 283.5 27 L 283.5 13  Z " fill-rule="nonzero" fill="#f0f0f0" stroke="none" />
  <path d="M 283.5 13  A 1.5 1.5 0 0 1 285 11.5 L 299 11.5  A 1.5 1.5 0 0 1 300.5 13 L 300.5 27  A 1.5 1.5 0 0 1 299 28.5 L 285 28.5  A 1.5 1.5 0 0 1 283.5 27 L 283.5 13  Z " stroke-width="1" stroke="#0043f0" fill="none" />
  <path d="M 286.857142857143 20  L 290.714285714286 23.8571428571429  " stroke-width="3.85714285714286" stroke="#0043f0" fill="none" />
  <path d="M 290.714285714286 23.8571428571429  L 297.142857142857 14.8571428571429  " stroke-width="3.85714285714286" stroke="#0043f0" fill="none" />
</svg>