<?xml version="1.0" encoding="utf-8"?>
<svg version="1.1" xmlns:xlink="http://www.w3.org/1999/xlink" width="18px" height="18px" viewBox="285 53.5  18 18" xmlns="http://www.w3.org/2000/svg">
  <path d="M 285.5 55.5  A 1.5 1.5 0 0 1 287 54 L 301 54  A 1.5 1.5 0 0 1 302.5 55.5 L 302.5 69.5  A 1.5 1.5 0 0 1 301 71 L 287 71  A 1.5 1.5 0 0 1 285.5 69.5 L 285.5 55.5  Z " fill-rule="nonzero" fill="#f0f0f0" stroke="none" />
  <path d="M 285.5 55.5  A 1.5 1.5 0 0 1 287 54 L 301 54  A 1.5 1.5 0 0 1 302.5 55.5 L 302.5 69.5  A 1.5 1.5 0 0 1 301 71 L 287 71  A 1.5 1.5 0 0 1 285.5 69.5 L 285.5 55.5  Z " stroke-width="1" stroke="#0043f0" fill="none" />
  <path d="M 288.857142857143 62.5  L 292.714285714286 66.3571428571428  " stroke-width="3.85714285714286" stroke="#0043f0" fill="none" />
  <path d="M 292.714285714286 66.3571428571428  L 299.142857142857 57.3571428571429  " stroke-width="3.85714285714286" stroke="#0043f0" fill="none" />
</svg>