<?xml version="1.0" encoding="utf-8"?>
<svg version="1.1" xmlns:xlink="http://www.w3.org/1999/xlink" width="18px" height="18px" viewBox="284 53  18 18" xmlns="http://www.w3.org/2000/svg">
  <path d="M 284.5 55  A 1.5 1.5 0 0 1 286 53.5 L 300 53.5  A 1.5 1.5 0 0 1 301.5 55 L 301.5 69  A 1.5 1.5 0 0 1 300 70.5 L 286 70.5  A 1.5 1.5 0 0 1 284.5 69 L 284.5 55  Z " fill-rule="nonzero" fill="#0043f0" stroke="none" />
  <path d="M 284.5 55  A 1.5 1.5 0 0 1 286 53.5 L 300 53.5  A 1.5 1.5 0 0 1 301.5 55 L 301.5 69  A 1.5 1.5 0 0 1 300 70.5 L 286 70.5  A 1.5 1.5 0 0 1 284.5 69 L 284.5 55  Z " stroke-width="1" stroke="#ffffff" fill="none" />
  <path d="M 287.857142857143 62  L 291.714285714286 65.8571428571428  " stroke-width="3.85714285714286" stroke="#ffffff" fill="none" />
  <path d="M 291.714285714286 65.8571428571428  L 298.142857142857 56.8571428571429  " stroke-width="3.85714285714286" stroke="#ffffff" fill="none" />
</svg>