<?xml version="1.0" encoding="utf-8"?>
<svg version="1.1" xmlns:xlink="http://www.w3.org/1999/xlink" width="353px" height="82px" xmlns="http://www.w3.org/2000/svg">
  <defs>
    <mask fill="white" id="clip478">
      <path d="M 0 78.0576923076923  L 0 3.94230769230769  C 0 1.73461538461538  2.2 0  5 0  L 348 0  C 350.8 0  353 1.73461538461538  353 3.94230769230769  L 353 78.0576923076923  C 353 80.2653846153846  350.8 82  348 82  L 177.260869565217 82  L 5 82  C 2.2 82  0 80.2653846153846  0 78.0576923076923  Z " fill-rule="evenodd" />
    </mask>
  </defs>
  <g>
    <path d="M 0 78.0576923076923  L 0 3.94230769230769  C 0 1.73461538461538  2.2 0  5 0  L 348 0  C 350.8 0  353 1.73461538461538  353 3.94230769230769  L 353 78.0576923076923  C 353 80.2653846153846  350.8 82  348 82  L 177.260869565217 82  L 5 82  C 2.2 82  0 80.2653846153846  0 78.0576923076923  Z " fill-rule="nonzero" fill="#ffffff" stroke="none" />
    <path d="M 0 78.0576923076923  L 0 3.94230769230769  C 0 1.73461538461538  2.2 0  5 0  L 348 0  C 350.8 0  353 1.73461538461538  353 3.94230769230769  L 353 78.0576923076923  C 353 80.2653846153846  350.8 82  348 82  L 177.260869565217 82  L 5 82  C 2.2 82  0 80.2653846153846  0 78.0576923076923  Z " stroke-width="2" stroke="#c3c3c3" fill="none" mask="url(#clip478)" />
  </g>
</svg>