<?xml version="1.0" encoding="utf-8"?>
<svg version="1.1" xmlns:xlink="http://www.w3.org/1999/xlink" width="302px" height="82px" xmlns="http://www.w3.org/2000/svg">
  <defs>
    <mask fill="white" id="clip458">
      <path d="M 0 78.0576923076923  L 0 3.94230769230769  C 0 1.73461538461538  1.88215297450425 0  4.27762039660057 0  L 297.722379603399 0  C 300.117847025496 0  302 1.73461538461538  302 3.94230769230769  L 302 78.0576923076923  C 302 80.2653846153846  300.117847025496 82  297.722379603399 82  L 151.650942234265 82  L 4.27762039660057 82  C 1.88215297450425 82  0 80.2653846153846  0 78.0576923076923  Z " fill-rule="evenodd" />
    </mask>
  </defs>
  <g>
    <path d="M 0 78.0576923076923  L 0 3.94230769230769  C 0 1.73461538461538  1.88215297450425 0  4.27762039660057 0  L 297.722379603399 0  C 300.117847025496 0  302 1.73461538461538  302 3.94230769230769  L 302 78.0576923076923  C 302 80.2653846153846  300.117847025496 82  297.722379603399 82  L 151.650942234265 82  L 4.27762039660057 82  C 1.88215297450425 82  0 80.2653846153846  0 78.0576923076923  Z " fill-rule="nonzero" fill="#ffffff" stroke="none" />
    <path d="M 0 78.0576923076923  L 0 3.94230769230769  C 0 1.73461538461538  1.88215297450425 0  4.27762039660057 0  L 297.722379603399 0  C 300.117847025496 0  302 1.73461538461538  302 3.94230769230769  L 302 78.0576923076923  C 302 80.2653846153846  300.117847025496 82  297.722379603399 82  L 151.650942234265 82  L 4.27762039660057 82  C 1.88215297450425 82  0 80.2653846153846  0 78.0576923076923  Z " stroke-width="2" stroke="#c3c3c3" fill="none" mask="url(#clip458)" />
  </g>
</svg>