<?xml version="1.0" encoding="utf-8"?>
<svg version="1.1" xmlns:xlink="http://www.w3.org/1999/xlink" width="304px" height="82px" xmlns="http://www.w3.org/2000/svg">
  <defs>
    <mask fill="white" id="clip528">
      <path d="M 0 78.0576923076923  L 0 3.94230769230769  C 0 1.73461538461538  1.89461756373938 0  4.30594900849858 0  L 299.694050991501 0  C 302.105382436261 0  304 1.73461538461538  304 3.94230769230769  L 304 78.0576923076923  C 304 80.2653846153846  302.105382436261 82  299.694050991501 82  L 152.655253109989 82  L 4.30594900849858 82  C 1.89461756373938 82  0 80.2653846153846  0 78.0576923076923  Z " fill-rule="evenodd" />
    </mask>
  </defs>
  <g>
    <path d="M 0 78.0576923076923  L 0 3.94230769230769  C 0 1.73461538461538  1.89461756373938 0  4.30594900849858 0  L 299.694050991501 0  C 302.105382436261 0  304 1.73461538461538  304 3.94230769230769  L 304 78.0576923076923  C 304 80.2653846153846  302.105382436261 82  299.694050991501 82  L 152.655253109989 82  L 4.30594900849858 82  C 1.89461756373938 82  0 80.2653846153846  0 78.0576923076923  Z " fill-rule="nonzero" fill="#ffffff" stroke="none" />
    <path d="M 0 78.0576923076923  L 0 3.94230769230769  C 0 1.73461538461538  1.89461756373938 0  4.30594900849858 0  L 299.694050991501 0  C 302.105382436261 0  304 1.73461538461538  304 3.94230769230769  L 304 78.0576923076923  C 304 80.2653846153846  302.105382436261 82  299.694050991501 82  L 152.655253109989 82  L 4.30594900849858 82  C 1.89461756373938 82  0 80.2653846153846  0 78.0576923076923  Z " stroke-width="2" stroke="#c3c3c3" fill="none" mask="url(#clip528)" />
  </g>
</svg>