<?xml version="1.0" encoding="utf-8"?>
<svg version="1.1" xmlns:xlink="http://www.w3.org/1999/xlink" width="22px" height="22px" viewBox="332 63  22 22" xmlns="http://www.w3.org/2000/svg">
  <path d="M 332.5 65  A 1.5 1.5 0 0 1 334 63.5 L 352 63.5  A 1.5 1.5 0 0 1 353.5 65 L 353.5 83  A 1.5 1.5 0 0 1 352 84.5 L 334 84.5  A 1.5 1.5 0 0 1 332.5 83 L 332.5 65  Z " fill-rule="nonzero" fill="#f0f0f0" stroke="none" />
  <path d="M 332.5 65  A 1.5 1.5 0 0 1 334 63.5 L 352 63.5  A 1.5 1.5 0 0 1 353.5 65 L 353.5 83  A 1.5 1.5 0 0 1 352 84.5 L 334 84.5  A 1.5 1.5 0 0 1 332.5 83 L 332.5 65  Z " stroke-width="1" stroke="#0043f0" fill="none" />
</svg>