<?xml version="1.0" encoding="utf-8"?>
<svg version="1.1" xmlns:xlink="http://www.w3.org/1999/xlink" width="22px" height="22px" viewBox="326 263  22 22" xmlns="http://www.w3.org/2000/svg">
  <path d="M 326.5 265  A 1.5 1.5 0 0 1 328 263.5 L 346 263.5  A 1.5 1.5 0 0 1 347.5 265 L 347.5 283  A 1.5 1.5 0 0 1 346 284.5 L 328 284.5  A 1.5 1.5 0 0 1 326.5 283 L 326.5 265  Z " fill-rule="nonzero" fill="#0043f0" stroke="none" />
  <path d="M 326.5 265  A 1.5 1.5 0 0 1 328 263.5 L 346 263.5  A 1.5 1.5 0 0 1 347.5 265 L 347.5 283  A 1.5 1.5 0 0 1 346 284.5 L 328 284.5  A 1.5 1.5 0 0 1 326.5 283 L 326.5 265  Z " stroke-width="1" stroke="#ffffff" fill="none" />
  <path d="M 330.714285714286 274  L 335.428571428571 278.714285714286  " stroke-width="4.71428571428571" stroke="#ffffff" fill="none" />
  <path d="M 335.428571428571 278.714285714286  L 343.285714285714 267.714285714286  " stroke-width="4.71428571428571" stroke="#ffffff" fill="none" />
</svg>