<?xml version="1.0" encoding="utf-8"?>
<svg version="1.1" xmlns:xlink="http://www.w3.org/1999/xlink" width="22px" height="22px" viewBox="330 461  22 22" xmlns="http://www.w3.org/2000/svg">
  <path d="M 330.5 463  A 1.5 1.5 0 0 1 332 461.5 L 350 461.5  A 1.5 1.5 0 0 1 351.5 463 L 351.5 481  A 1.5 1.5 0 0 1 350 482.5 L 332 482.5  A 1.5 1.5 0 0 1 330.5 481 L 330.5 463  Z " fill-rule="nonzero" fill="#f0f0f0" stroke="none" />
  <path d="M 330.5 463  A 1.5 1.5 0 0 1 332 461.5 L 350 461.5  A 1.5 1.5 0 0 1 351.5 463 L 351.5 481  A 1.5 1.5 0 0 1 350 482.5 L 332 482.5  A 1.5 1.5 0 0 1 330.5 481 L 330.5 463  Z " stroke-width="1" stroke="#0043f0" fill="none" />
  <path d="M 334.714285714286 472  L 339.428571428571 476.714285714286  " stroke-width="4.71428571428571" stroke="#0043f0" fill="none" />
  <path d="M 339.428571428571 476.714285714286  L 347.285714285714 465.714285714286  " stroke-width="4.71428571428571" stroke="#0043f0" fill="none" />
</svg>