<?xml version="1.0" encoding="utf-8"?>
<svg version="1.1" xmlns:xlink="http://www.w3.org/1999/xlink" width="20px" height="5px" xmlns="http://www.w3.org/2000/svg">
  <g transform="matrix(1 0 0 1 -350 -43 )">
    <path d="M 12.3294117647059 2.5  C 12.3294117647059 1.133125  11.2875294117647 0.0249999999999995  10.0010588235294 0.0249999999999995  C 8.71458823529412 0.0249999999999995  7.67058823529412 1.133125  7.67058823529412 2.5  C 7.67058823529412 3.866875  8.71458823529412 4.975  10.0010588235294 4.975  C 11.2875294117647 4.975  12.3294117647059 3.866875  12.3294117647059 2.5  Z M 4.91764705882353 2.5  C 4.91764705882353 1.13425  3.87576470588235 0.0249999999999995  2.58929411764706 0.0249999999999995  C 1.30282352941176 0.0249999999999995  0.258823529411765 1.133125  0.258823529411765 2.5  C 0.258823529411765 3.866875  1.30282352941176 4.975  2.58929411764706 4.975  C 3.87576470588235 4.975  4.91764705882353 3.86575  4.91764705882353 2.5  Z M 19.7411764705882 2.5  C 19.7411764705882 1.133125  18.6992941176471 0.0249999999999995  17.4128235294118 0.0249999999999995  C 16.1263529411765 0.0249999999999995  15.0823529411765 1.133125  15.0823529411765 2.5  C 15.0823529411765 3.866875  16.1263529411765 4.975  17.4128235294118 4.975  C 18.6992941176471 4.975  19.7411764705882 3.866875  19.7411764705882 2.5  Z " fill-rule="nonzero" fill="#f9fff4" stroke="none" transform="matrix(1 0 0 1 350 43 )" />
  </g>
</svg>