<svg version="1.1" xmlns="http://www.w3.org/2000/svg" xmlns:xlink="http://www.w3.org/1999/xlink" width="16" height="16" viewBox="0,0,256,256"><g fill="#dfb454" fill-rule="nonzero" stroke="none" stroke-width="1" stroke-linecap="butt" stroke-linejoin="miter" stroke-miterlimit="10" stroke-dasharray="" stroke-dashoffset="0" font-family="none" font-weight="none" font-size="none" text-anchor="none" style="mix-blend-mode: normal"><g transform="scale(16,16)"><path d="M8,1c1.10457,0 2,0.89543 2,2v4h-4v-4c0,-1.10457 0.89543,-2 2,-2M11,7v-4c0,-1.65685 -1.34315,-3 -3,-3c-1.65685,0 -3,1.34315 -3,3v4c-1.10457,0 -2,0.89543 -2,2v5c0,1.10457 0.89543,2 2,2h6c1.10457,0 2,-0.89543 2,-2v-5c0,-1.10457 -0.89543,-2 -2,-2"></path></g></g></svg>