<svg version="1.1" xmlns="http://www.w3.org/2000/svg" xmlns:xlink="http://www.w3.org/1999/xlink" width="16" height="16" viewBox="0,0,256,256"><g fill="#666464" fill-rule="nonzero" stroke="none" stroke-width="1" stroke-linecap="butt" stroke-linejoin="miter" stroke-miterlimit="10" stroke-dasharray="" stroke-dashoffset="0" font-family="none" font-weight="none" font-size="none" text-anchor="none" style="mix-blend-mode: normal"><g transform="translate(0,8) scale(16,16)"><path d="M5,1c-1.10457,0 -2,0.89543 -2,2v1h10v-1c0,-1.10457 -0.89543,-2 -2,-2zM11,9h-6c-0.55228,0 -1,0.44772 -1,1v3c0,0.55228 0.44772,1 1,1h6c0.55228,0 1,-0.44772 1,-1v-3c0,-0.55228 -0.44772,-1 -1,-1"></path><path d="M0,7c0,-1.10457 0.89543,-2 2,-2h12c1.10457,0 2,0.89543 2,2v3c0,1.10457 -0.89543,2 -2,2h-1v-2c0,-1.10457 -0.89543,-2 -2,-2h-6c-1.10457,0 -2,0.89543 -2,2v2h-1c-1.10457,0 -2,-0.89543 -2,-2zM2.5,8c0.27614,0 0.5,-0.22386 0.5,-0.5c0,-0.27614 -0.22386,-0.5 -0.5,-0.5c-0.27614,0 -0.5,0.22386 -0.5,0.5c0,0.27614 0.22386,0.5 0.5,0.5"></path></g></g></svg>