<?xml version="1.0" encoding="utf-8"?>
<svg version="1.1" xmlns:xlink="http://www.w3.org/1999/xlink" width="17px" height="13px" xmlns="http://www.w3.org/2000/svg">
  <g transform="matrix(1 0 0 1 -282 -23 )">
    <path d="M 12.6219308035714 10.1844618055556  C 13.8899739583333 9.27039930555556  14.944568452381 8.04224537037037  15.7857142857143 6.5  C 14.8244047619048 4.72453703703704  13.6196056547619 3.39670138888889  12.1713169642857 2.51649305555555  C 12.5571056547619 3.29890046296296  12.75 4.14525462962963  12.75 5.05555555555556  C 12.75 6.44733796296296  12.3341703869048 7.63787615740741  11.5025111607143 8.62717013888889  C 10.6708519345238 9.61646412037037  9.67001488095238 10.1111111111111  8.5 10.1111111111111  C 7.32998511904762 10.1111111111111  6.32914806547619 9.61646412037037  5.49748883928571 8.62717013888889  C 4.66582961309524 7.63787615740741  4.25 6.44733796296296  4.25 5.05555555555556  C 4.25 4.14525462962963  4.4428943452381 3.29890046296296  4.82868303571429 2.51649305555555  C 3.3803943452381 3.39670138888889  2.17559523809524 4.72453703703704  1.21428571428571 6.5  C 2.05543154761905 8.04224537037037  3.11002604166667 9.27039930555556  4.37806919642857 10.1844618055556  C 5.64611235119048 11.0985243055556  7.02008928571429 11.5555555555556  8.5 11.5555555555556  C 9.97991071428571 11.5555555555556  11.3538876488095 11.0985243055556  12.6219308035714 10.1844618055556  Z M 8.82254464285714 2.55034722222222  C 8.91108630952381 2.44502314814815  8.95535714285714 2.31712962962963  8.95535714285714 2.16666666666667  C 8.95535714285714 2.0162037037037  8.91108630952381 1.88831018518518  8.82254464285714 1.78298611111111  C 8.73400297619048 1.67766203703704  8.62648809523809 1.625  8.5 1.625  C 7.70944940476191 1.625  7.03115699404762 1.96166087962963  6.46512276785714 2.63498263888889  C 5.89908854166667 3.30830439814815  5.61607142857143 4.11516203703704  5.61607142857143 5.05555555555556  C 5.61607142857143 5.20601851851852  5.66034226190476 5.33391203703704  5.74888392857143 5.43923611111111  C 5.8374255952381 5.54456018518518  5.94494047619048 5.59722222222222  6.07142857142857 5.59722222222222  C 6.19791666666667 5.59722222222222  6.30543154761905 5.54456018518518  6.39397321428571 5.43923611111111  C 6.48251488095238 5.33391203703704  6.52678571428571 5.20601851851852  6.52678571428571 5.05555555555556  C 6.52678571428571 4.40856481481481  6.71968005952381 3.85561342592593  7.10546875 3.39670138888889  C 7.49125744047619 2.93778935185185  7.95610119047619 2.70833333333333  8.5 2.70833333333333  C 8.62648809523809 2.70833333333333  8.73400297619048 2.6556712962963  8.82254464285714 2.55034722222222  Z M 16.8102678571429 5.72135416666667  C 16.936755952381 5.98466435185185  17 6.24421296296296  17 6.5  C 17 6.75578703703704  16.936755952381 7.01533564814815  16.8102678571429 7.27864583333333  C 15.9248511904762 9.00896990740741  14.7342819940476 10.3951099537037  13.2385602678571 11.4370659722222  C 11.7428385416667 12.4790219907407  10.163318452381 13  8.5 13  C 6.83668154761905 13  5.25716145833333 12.4771412037037  3.76143973214286 11.4314236111111  C 2.26571800595238 10.3857060185185  1.07514880952381 9.00144675925926  0.189732142857143 7.27864583333333  C 0.0632440476190476 7.01533564814815  0 6.75578703703704  0 6.5  C 0 6.24421296296296  0.0632440476190476 5.98466435185185  0.189732142857143 5.72135416666667  C 1.07514880952381 3.99855324074074  2.26571800595238 2.61429398148148  3.76143973214286 1.56857638888889  C 5.25716145833333 0.522858796296295  6.83668154761905 0  8.5 0  C 10.163318452381 0  11.7428385416667 0.522858796296295  13.2385602678571 1.56857638888889  C 14.7342819940476 2.61429398148148  15.9248511904762 3.99855324074074  16.8102678571429 5.72135416666667  Z " fill-rule="nonzero" fill="#cdcdcd" stroke="none" transform="matrix(1 0 0 1 282 23 )" />
  </g>
</svg>