<svg version="1.1" xmlns="http://www.w3.org/2000/svg" xmlns:xlink="http://www.w3.org/1999/xlink" width="16" height="16" viewBox="0,0,256,256"><g fill="#77b21e" fill-rule="nonzero" stroke="none" stroke-width="1" stroke-linecap="butt" stroke-linejoin="miter" stroke-miterlimit="10" stroke-dasharray="" stroke-dashoffset="0" font-family="none" font-weight="none" font-size="none" text-anchor="none" style="mix-blend-mode: normal"><g transform="translate(0,8) scale(16,16)"><path d="M8,2c-1.31976,0.00414 -2.59452,0.48014 -3.594,1.342c-0.766,0.66 -1.321,1.52 -1.464,2.383c-1.676,0.37 -2.942,1.83 -2.942,3.593c0,2.048 1.708,3.682 3.781,3.682h8.906c1.815,0 3.313,-1.43 3.313,-3.227c0,-1.636 -1.242,-2.969 -2.834,-3.194c-0.243,-2.58 -2.476,-4.579 -5.166,-4.579M10.354,6.854l-3,3c-0.0938,0.09404 -0.22117,0.14689 -0.354,0.14689c-0.13283,0 -0.2602,-0.05285 -0.354,-0.14689l-1.5,-1.5c-0.19551,-0.19551 -0.19551,-0.51249 0,-0.708c0.19551,-0.19551 0.51249,-0.19551 0.708,0l1.146,1.147l2.646,-2.647c0.19551,-0.19551 0.51249,-0.19551 0.708,0c0.19551,0.19551 0.19551,0.51249 0,0.708"></path></g></g></svg>