<?xml version="1.0" encoding="utf-8"?>
<svg version="1.1" xmlns:xlink="http://www.w3.org/1999/xlink" width="18px" height="18px" viewBox="32 49  18 18" xmlns="http://www.w3.org/2000/svg">
  <path d="M 32.5 51  A 1.5 1.5 0 0 1 34 49.5 L 48 49.5  A 1.5 1.5 0 0 1 49.5 51 L 49.5 65  A 1.5 1.5 0 0 1 48 66.5 L 34 66.5  A 1.5 1.5 0 0 1 32.5 65 L 32.5 51  Z " fill-rule="nonzero" fill="#f0f0f0" stroke="none" />
  <path d="M 32.5 51  A 1.5 1.5 0 0 1 34 49.5 L 48 49.5  A 1.5 1.5 0 0 1 49.5 51 L 49.5 65  A 1.5 1.5 0 0 1 48 66.5 L 34 66.5  A 1.5 1.5 0 0 1 32.5 65 L 32.5 51  Z " stroke-width="1" stroke="#0043f0" fill="none" />
  <path d="M 35.8571428571429 58  L 39.7142857142857 61.8571428571429  " stroke-width="3.85714285714286" stroke="#0043f0" fill="none" />
  <path d="M 39.7142857142857 61.8571428571429  L 46.1428571428571 52.8571428571429  " stroke-width="3.85714285714286" stroke="#0043f0" fill="none" />
</svg>