<?xml version="1.0" encoding="utf-8"?>
<svg version="1.1" xmlns:xlink="http://www.w3.org/1999/xlink" width="18px" height="18px" viewBox="32 52  18 18" xmlns="http://www.w3.org/2000/svg">
  <path d="M 32.5 54  A 1.5 1.5 0 0 1 34 52.5 L 48 52.5  A 1.5 1.5 0 0 1 49.5 54 L 49.5 68  A 1.5 1.5 0 0 1 48 69.5 L 34 69.5  A 1.5 1.5 0 0 1 32.5 68 L 32.5 54  Z " fill-rule="nonzero" fill="#f0f0f0" stroke="none" />
  <path d="M 32.5 54  A 1.5 1.5 0 0 1 34 52.5 L 48 52.5  A 1.5 1.5 0 0 1 49.5 54 L 49.5 68  A 1.5 1.5 0 0 1 48 69.5 L 34 69.5  A 1.5 1.5 0 0 1 32.5 68 L 32.5 54  Z " stroke-width="1" stroke="#0043f0" fill="none" />
</svg>