<?xml version="1.0" encoding="utf-8"?>
<svg version="1.1" xmlns:xlink="http://www.w3.org/1999/xlink" width="34px" height="34px" xmlns="http://www.w3.org/2000/svg">
  <defs>
    <filter x="293px" y="9px" width="34px" height="34px" filterUnits="userSpaceOnUse" id="filter1485">
      <feOffset dx="0" dy="2" in="SourceAlpha" result="shadowOffsetInner" />
      <feGaussianBlur stdDeviation="1" in="shadowOffsetInner" result="shadowGaussian" />
      <feComposite in2="shadowGaussian" operator="atop" in="SourceAlpha" result="shadowComposite" />
      <feColorMatrix type="matrix" values="0 0 0 0 0  0 0 0 0 0  0 0 0 0 0  0 0 0 0.349019607843137 0  " in="shadowComposite" />
    </filter>
    <g id="widget1486">
      <path d="M 0 15  L 2.5 15  C 2.5 22  8.00000000000001 27.5  15 27.5  C 22 27.5  27.5 22  27.5 15  C 27.5 8  22 2.5  15 2.49983393853079  L 15 0  C 23.4 0  30 6.6  30 15  C 30 23.4  23.4 30  15 30  C 6.6 30  0 23.4  0 15  Z " fill-rule="nonzero" fill="#02a7f0" stroke="none" transform="matrix(1 0 0 1 295 9 )" />
    </g>
  </defs>
  <g transform="matrix(1 0 0 1 -293 -9 )">
    <use xlink:href="#widget1486" filter="url(#filter1485)" />
    <use xlink:href="#widget1486" />
  </g>
</svg>