<?xml version="1.0" encoding="utf-8"?>
<svg version="1.1" xmlns:xlink="http://www.w3.org/1999/xlink" width="20px" height="17px" xmlns="http://www.w3.org/2000/svg">
  <g transform="matrix(1 0 0 1 -150 -176 )">
    <path d="M 160 176  C 165.6 176  170 179.74  170 184.5  C 170 189.26  165.6 193  160 193  C 154.4 193  150 189.26  150 184.5  C 150 179.74  154.4 176  160 176  Z " fill-rule="nonzero" fill="#9fd16c" stroke="none" />
    <path d="M 160 176.5  C 165.32 176.5  169.5 180.02  169.5 184.5  C 169.5 188.98  165.32 192.5  160 192.5  C 154.68 192.5  150.5 188.98  150.5 184.5  C 150.5 180.02  154.68 176.5  160 176.5  Z " stroke-width="1" stroke="#797979" fill="none" />
  </g>
</svg>