<?xml version="1.0" encoding="utf-8"?>
<svg version="1.1" xmlns:xlink="http://www.w3.org/1999/xlink" width="20px" height="17px" xmlns="http://www.w3.org/2000/svg">
  <g transform="matrix(1 0 0 1 -274 -176 )">
    <path d="M 284 176  C 289.6 176  294 179.74  294 184.5  C 294 189.26  289.6 193  284 193  C 278.4 193  274 189.26  274 184.5  C 274 179.74  278.4 176  284 176  Z " fill-rule="nonzero" fill="#d0021b" stroke="none" />
    <path d="M 284 176.5  C 289.32 176.5  293.5 180.02  293.5 184.5  C 293.5 188.98  289.32 192.5  284 192.5  C 278.68 192.5  274.5 188.98  274.5 184.5  C 274.5 180.02  278.68 176.5  284 176.5  Z " stroke-width="1" stroke="#797979" fill="none" />
  </g>
</svg>