<?xml version="1.0" encoding="utf-8"?>
<svg version="1.1" xmlns:xlink="http://www.w3.org/1999/xlink" width="20px" height="17px" xmlns="http://www.w3.org/2000/svg">
  <g transform="matrix(1 0 0 1 -429 -116 )">
    <path d="M 439 116  C 444.6 116  449 119.74  449 124.5  C 449 129.26  444.6 133  439 133  C 433.4 133  429 129.26  429 124.5  C 429 119.74  433.4 116  439 116  Z " fill-rule="nonzero" fill="#4d92df" stroke="none" />
    <path d="M 439 116.5  C 444.32 116.5  448.5 120.02  448.5 124.5  C 448.5 128.98  444.32 132.5  439 132.5  C 433.68 132.5  429.5 128.98  429.5 124.5  C 429.5 120.02  433.68 116.5  439 116.5  Z " stroke-width="1" stroke="#797979" fill="none" />
  </g>
</svg>