<?xml version="1.0" encoding="utf-8"?>
<svg version="1.1" xmlns:xlink="http://www.w3.org/1999/xlink" width="20px" height="17px" xmlns="http://www.w3.org/2000/svg">
  <g transform="matrix(1 0 0 1 -63 -160 )">
    <path d="M 73 160  C 78.6 160  83 163.74  83 168.5  C 83 173.26  78.6 177  73 177  C 67.4 177  63 173.26  63 168.5  C 63 163.74  67.4 160  73 160  Z " fill-rule="nonzero" fill="#9fd16c" stroke="none" />
    <path d="M 73 160.5  C 78.32 160.5  82.5 164.02  82.5 168.5  C 82.5 172.98  78.32 176.5  73 176.5  C 67.68 176.5  63.5 172.98  63.5 168.5  C 63.5 164.02  67.68 160.5  73 160.5  Z " stroke-width="1" stroke="#797979" fill="none" />
  </g>
</svg>