<?xml version="1.0" encoding="utf-8"?>
<svg version="1.1" xmlns:xlink="http://www.w3.org/1999/xlink" width="35px" height="35px" xmlns="http://www.w3.org/2000/svg">
  <defs>
    <filter x="110px" y="9px" width="35px" height="35px" filterUnits="userSpaceOnUse" id="filter151">
      <feOffset dx="0" dy="2" in="SourceAlpha" result="shadowOffsetInner" />
      <feGaussianBlur stdDeviation="1" in="shadowOffsetInner" result="shadowGaussian" />
      <feComposite in2="shadowGaussian" operator="atop" in="SourceAlpha" result="shadowComposite" />
      <feColorMatrix type="matrix" values="0 0 0 0 0  0 0 0 0 0  0 0 0 0 0  0 0 0 0.349019607843137 0  " in="shadowComposite" />
    </filter>
    <g id="widget152">
      <path d="M 0 15.5  L 2.58333333333333 15.5  C 2.58333333333333 22.7333333333333  8.26666666666667 28.4166666666667  15.5 28.4166666666667  C 22.7333333333333 28.4166666666667  28.4166666666667 22.7333333333333  28.4166666666667 15.5  C 28.4166666666667 8.26666666666667  22.7333333333333 2.58333333333333  15.5 2.58316173648182  L 15.5 0  C 24.18 0  31 6.82  31 15.5  C 31 24.18  24.18 31  15.5 31  C 6.82 31  0 24.18  0 15.5  Z " fill-rule="nonzero" fill="#ffe9eb" stroke="none" transform="matrix(1 0 0 1 112 9 )" />
    </g>
  </defs>
  <g transform="matrix(1 0 0 1 -110 -9 )">
    <use xlink:href="#widget152" filter="url(#filter151)" />
    <use xlink:href="#widget152" />
  </g>
</svg>