<?xml version="1.0" encoding="utf-8"?>
<svg version="1.1" xmlns:xlink="http://www.w3.org/1999/xlink" width="14px" height="14px" viewBox="32 55  14 14" xmlns="http://www.w3.org/2000/svg">
  <path d="M 32.5 57  A 1.5 1.5 0 0 1 34 55.5 L 44 55.5  A 1.5 1.5 0 0 1 45.5 57 L 45.5 67  A 1.5 1.5 0 0 1 44 68.5 L 34 68.5  A 1.5 1.5 0 0 1 32.5 67 L 32.5 57  Z " fill-rule="nonzero" fill="#f0f0f0" stroke="none" />
  <path d="M 32.5 57  A 1.5 1.5 0 0 1 34 55.5 L 44 55.5  A 1.5 1.5 0 0 1 45.5 57 L 45.5 67  A 1.5 1.5 0 0 1 44 68.5 L 34 68.5  A 1.5 1.5 0 0 1 32.5 67 L 32.5 57  Z " stroke-width="1" stroke="#0043f0" fill="none" />
  <path d="M 35.5 62.5  L 38.5 65.5  " stroke-width="3" stroke="#0043f0" fill="none" />
  <path d="M 38.5 65.5  L 43.5 58.5  " stroke-width="3" stroke="#0043f0" fill="none" />
</svg>