<?xml version="1.0" encoding="utf-8"?>
<svg version="1.1" xmlns:xlink="http://www.w3.org/1999/xlink" width="14px" height="14px" viewBox="32 52  14 14" xmlns="http://www.w3.org/2000/svg">
  <path d="M 32.5 54  A 1.5 1.5 0 0 1 34 52.5 L 44 52.5  A 1.5 1.5 0 0 1 45.5 54 L 45.5 64  A 1.5 1.5 0 0 1 44 65.5 L 34 65.5  A 1.5 1.5 0 0 1 32.5 64 L 32.5 54  Z " fill-rule="nonzero" fill="#ffffff" stroke="none" />
  <path d="M 32.5 54  A 1.5 1.5 0 0 1 34 52.5 L 44 52.5  A 1.5 1.5 0 0 1 45.5 54 L 45.5 64  A 1.5 1.5 0 0 1 44 65.5 L 34 65.5  A 1.5 1.5 0 0 1 32.5 64 L 32.5 54  Z " stroke-width="1" stroke="#0043f0" fill="none" />
</svg>