<svg version="1.1" xmlns="http://www.w3.org/2000/svg" xmlns:xlink="http://www.w3.org/1999/xlink" width="16" height="16" viewBox="0,0,256,256"><g fill="#717171" fill-rule="nonzero" stroke="none" stroke-width="1" stroke-linecap="butt" stroke-linejoin="miter" stroke-miterlimit="10" stroke-dasharray="" stroke-dashoffset="0" font-family="none" font-weight="none" font-size="none" text-anchor="none" style="mix-blend-mode: normal"><g transform="translate(-0.00014,6) scale(16,16)"><path d="M10.706,3.294c-0.88874,-0.19543 -1.79603,-0.294 -2.706,-0.294c-2.741,0 -5.277,0.882 -7.337,2.379c-0.11365,0.08493 -0.18441,0.21536 -0.19364,0.35694c-0.00923,0.14157 0.04399,0.28009 0.14564,0.37906c0.18085,0.17697 0.46282,0.19808 0.668,0.05c1.9552,-1.41089 4.3059,-2.16856 6.717,-2.165c0.63067,0 1.248,0.04933 1.852,0.148zM8,6c-1.905,0 -3.68,0.56 -5.166,1.526c-0.12041,0.08126 -0.19754,0.21268 -0.20978,0.35742c-0.01224,0.14475 0.04173,0.28725 0.14678,0.38758c0.17548,0.17127 0.44616,0.19826 0.652,0.065c1.0607,-0.67969 2.25996,-1.11361 3.51,-1.27zM10.596,7.404l0.785,-0.785c0.63133,0.24133 1.22633,0.54367 1.785,0.907c0.11977,0.08173 0.19639,0.21304 0.20861,0.35752c0.01222,0.14449 -0.04126,0.28679 -0.14561,0.38748c-0.17548,0.17127 -0.44616,0.19826 -0.652,0.065c-0.61708,-0.39468 -1.2826,-0.70795 -1.98,-0.932zM8,10l0.933,-0.933c0.70123,0.10121 1.3812,0.31638 2.013,0.637c0.285,0.145 0.326,0.524 0.1,0.75l-0.015,0.015c-0.16334,0.15782 -0.40909,0.19402 -0.611,0.09c-0.75349,-0.36842 -1.58126,-0.55963 -2.42,-0.559M12.905,5.095l0.747,-0.747c0.59067,0.30067 1.15233,0.644 1.685,1.03c0.11385,0.08508 0.18466,0.21581 0.1937,0.35765c0.00905,0.14184 -0.04458,0.28051 -0.1467,0.37935c-0.18085,0.17697 -0.46282,0.19808 -0.668,0.05c-0.56971,-0.41124 -1.17591,-0.76941 -1.811,-1.07M9.02,11.78c0.238,0.14 0.236,0.464 0.04,0.66l-0.707,0.706c-0.19525,0.19519 -0.51175,0.19519 -0.707,0l-0.707,-0.707c-0.195,-0.195 -0.197,-0.518 0.04,-0.66c0.3091,-0.183 0.66179,-0.27938 1.021,-0.279c0.374,0 0.723,0.102 1.021,0.28zM13.375,1.875c0.20711,-0.20711 0.54289,-0.20711 0.75,0c0.20711,0.20711 0.20711,0.54289 0,0.75l-10.75,10.75c-0.20711,0.20711 -0.54289,0.20711 -0.75,0c-0.20711,-0.20711 -0.20711,-0.54289 0,-0.75z"></path></g></g></svg>