<svg version="1.1" xmlns="http://www.w3.org/2000/svg" xmlns:xlink="http://www.w3.org/1999/xlink" width="16" height="16" viewBox="0,0,256,256"><g fill="#636363" fill-rule="nonzero" stroke="none" stroke-width="1" stroke-linecap="butt" stroke-linejoin="miter" stroke-miterlimit="10" stroke-dasharray="" stroke-dashoffset="0" font-family="none" font-weight="none" font-size="none" text-anchor="none" style="mix-blend-mode: normal"><g transform="translate(0.00452,-2.33901) scale(16,16)"><path d="M15.384,6.115c0.10176,-0.09883 0.15516,-0.23726 0.14612,-0.37883c-0.00904,-0.14157 -0.07961,-0.27208 -0.19312,-0.35717c-2.13185,-1.5503 -4.70105,-2.38336 -7.337,-2.379c-2.741,0 -5.277,0.882 -7.337,2.379c-0.11365,0.08493 -0.18441,0.21536 -0.19364,0.35694c-0.00923,0.14157 0.04399,0.28009 0.14564,0.37906c0.18085,0.17697 0.46282,0.19808 0.668,0.05c1.9552,-1.41089 4.3059,-2.16856 6.717,-2.165c2.507,0 4.827,0.802 6.716,2.164c0.205,0.148 0.49,0.13 0.668,-0.049"></path><path d="M13.229,8.271c0.10435,-0.10068 0.15782,-0.24299 0.14561,-0.38748c-0.01222,-0.14449 -0.08883,-0.27579 -0.20861,-0.35752c-1.53773,-0.99854 -3.3325,-1.52871 -5.166,-1.526c-1.905,0 -3.68,0.56 -5.166,1.526c-0.12041,0.08126 -0.19754,0.21268 -0.20978,0.35742c-0.01224,0.14475 0.04173,0.28725 0.14678,0.38758c0.17548,0.17127 0.44616,0.19826 0.652,0.065c1.36602,-0.87494 2.9548,-1.3387 4.577,-1.336c1.62186,-0.0025 3.21026,0.46124 4.576,1.336c0.206,0.132 0.48,0.108 0.653,-0.065M11.046,10.454c0.226,-0.226 0.185,-0.605 -0.1,-0.75c-0.91286,-0.46339 -1.92226,-0.7046 -2.946,-0.704c-1.06,0 -2.062,0.254 -2.946,0.704c-0.285,0.145 -0.326,0.524 -0.1,0.75l0.015,0.015c0.16,0.16 0.407,0.19 0.611,0.09c0.75349,-0.36842 1.58126,-0.55963 2.42,-0.559c0.868,0 1.69,0.201 2.42,0.56c0.203,0.1 0.45,0.07 0.61,-0.091zM9.06,12.44c0.196,-0.196 0.198,-0.52 -0.04,-0.66c-0.30871,-0.18318 -0.66103,-0.27989 -1.02,-0.28c-0.35897,0.00011 -0.71129,0.09682 -1.02,0.28c-0.238,0.14 -0.236,0.464 -0.04,0.66l0.706,0.706c0.19525,0.19519 0.51175,0.19519 0.707,0l0.707,-0.707z"></path></g></g></svg>