<?xml version="1.0" encoding="utf-8"?>
<svg version="1.1" xmlns:xlink="http://www.w3.org/1999/xlink" width="18px" height="18px" viewBox="275 172  18 18" xmlns="http://www.w3.org/2000/svg">
  <path d="M 275.5 174  A 1.5 1.5 0 0 1 277 172.5 L 291 172.5  A 1.5 1.5 0 0 1 292.5 174 L 292.5 188  A 1.5 1.5 0 0 1 291 189.5 L 277 189.5  A 1.5 1.5 0 0 1 275.5 188 L 275.5 174  Z " fill-rule="nonzero" fill="#f0f0f0" stroke="none" />
  <path d="M 275.5 174  A 1.5 1.5 0 0 1 277 172.5 L 291 172.5  A 1.5 1.5 0 0 1 292.5 174 L 292.5 188  A 1.5 1.5 0 0 1 291 189.5 L 277 189.5  A 1.5 1.5 0 0 1 275.5 188 L 275.5 174  Z " stroke-width="1" stroke="#0043f0" fill="none" />
</svg>