<?xml version="1.0" encoding="utf-8"?>
<svg version="1.1" xmlns:xlink="http://www.w3.org/1999/xlink" width="18px" height="18px" viewBox="281 11  18 18" xmlns="http://www.w3.org/2000/svg">
  <path d="M 281.5 13  A 1.5 1.5 0 0 1 283 11.5 L 297 11.5  A 1.5 1.5 0 0 1 298.5 13 L 298.5 27  A 1.5 1.5 0 0 1 297 28.5 L 283 28.5  A 1.5 1.5 0 0 1 281.5 27 L 281.5 13  Z " fill-rule="nonzero" fill="#f0f0f0" stroke="none" />
  <path d="M 281.5 13  A 1.5 1.5 0 0 1 283 11.5 L 297 11.5  A 1.5 1.5 0 0 1 298.5 13 L 298.5 27  A 1.5 1.5 0 0 1 297 28.5 L 283 28.5  A 1.5 1.5 0 0 1 281.5 27 L 281.5 13  Z " stroke-width="1" stroke="#0043f0" fill="none" />
  <path d="M 284.857142857143 20  L 288.714285714286 23.8571428571429  " stroke-width="3.85714285714286" stroke="#0043f0" fill="none" />
  <path d="M 288.714285714286 23.8571428571429  L 295.142857142857 14.8571428571429  " stroke-width="3.85714285714286" stroke="#0043f0" fill="none" />
</svg>