<?xml version="1.0" encoding="utf-8"?>
<svg version="1.1" xmlns:xlink="http://www.w3.org/1999/xlink" width="18px" height="18px" viewBox="275 206  18 18" xmlns="http://www.w3.org/2000/svg">
  <path d="M 275.5 208  A 1.5 1.5 0 0 1 277 206.5 L 291 206.5  A 1.5 1.5 0 0 1 292.5 208 L 292.5 222  A 1.5 1.5 0 0 1 291 223.5 L 277 223.5  A 1.5 1.5 0 0 1 275.5 222 L 275.5 208  Z " fill-rule="nonzero" fill="#ffffff" stroke="none" />
  <path d="M 275.5 208  A 1.5 1.5 0 0 1 277 206.5 L 291 206.5  A 1.5 1.5 0 0 1 292.5 208 L 292.5 222  A 1.5 1.5 0 0 1 291 223.5 L 277 223.5  A 1.5 1.5 0 0 1 275.5 222 L 275.5 208  Z " stroke-width="1" stroke="#0043f0" fill="none" />
</svg>