<?xml version="1.0" encoding="utf-8"?>
<svg version="1.1" xmlns:xlink="http://www.w3.org/1999/xlink" width="18px" height="18px" viewBox="275 135  18 18" xmlns="http://www.w3.org/2000/svg">
  <path d="M 275.5 137  A 1.5 1.5 0 0 1 277 135.5 L 291 135.5  A 1.5 1.5 0 0 1 292.5 137 L 292.5 151  A 1.5 1.5 0 0 1 291 152.5 L 277 152.5  A 1.5 1.5 0 0 1 275.5 151 L 275.5 137  Z " fill-rule="nonzero" fill="#f0f0f0" stroke="none" />
  <path d="M 275.5 137  A 1.5 1.5 0 0 1 277 135.5 L 291 135.5  A 1.5 1.5 0 0 1 292.5 137 L 292.5 151  A 1.5 1.5 0 0 1 291 152.5 L 277 152.5  A 1.5 1.5 0 0 1 275.5 151 L 275.5 137  Z " stroke-width="1" stroke="#0043f0" fill="none" />
  <path d="M 278.857142857143 144  L 282.714285714286 147.857142857143  " stroke-width="3.85714285714286" stroke="#0043f0" fill="none" />
  <path d="M 282.714285714286 147.857142857143  L 289.142857142857 138.857142857143  " stroke-width="3.85714285714286" stroke="#0043f0" fill="none" />
</svg>