<?xml version="1.0" encoding="utf-8"?>
<svg version="1.1" xmlns:xlink="http://www.w3.org/1999/xlink" width="18px" height="18px" viewBox="275 99  18 18" xmlns="http://www.w3.org/2000/svg">
  <path d="M 275.5 101  A 1.5 1.5 0 0 1 277 99.5 L 291 99.5  A 1.5 1.5 0 0 1 292.5 101 L 292.5 115  A 1.5 1.5 0 0 1 291 116.5 L 277 116.5  A 1.5 1.5 0 0 1 275.5 115 L 275.5 101  Z " fill-rule="nonzero" fill="#ffffff" stroke="none" />
  <path d="M 275.5 101  A 1.5 1.5 0 0 1 277 99.5 L 291 99.5  A 1.5 1.5 0 0 1 292.5 101 L 292.5 115  A 1.5 1.5 0 0 1 291 116.5 L 277 116.5  A 1.5 1.5 0 0 1 275.5 115 L 275.5 101  Z " stroke-width="1" stroke="#0043f0" fill="none" />
</svg>