<?xml version="1.0" encoding="utf-8"?>
<svg version="1.1" xmlns:xlink="http://www.w3.org/1999/xlink" width="18px" height="18px" viewBox="275 286  18 18" xmlns="http://www.w3.org/2000/svg">
  <path d="M 275.5 288  A 1.5 1.5 0 0 1 277 286.5 L 291 286.5  A 1.5 1.5 0 0 1 292.5 288 L 292.5 302  A 1.5 1.5 0 0 1 291 303.5 L 277 303.5  A 1.5 1.5 0 0 1 275.5 302 L 275.5 288  Z " fill-rule="nonzero" fill="#0043f0" stroke="none" />
  <path d="M 275.5 288  A 1.5 1.5 0 0 1 277 286.5 L 291 286.5  A 1.5 1.5 0 0 1 292.5 288 L 292.5 302  A 1.5 1.5 0 0 1 291 303.5 L 277 303.5  A 1.5 1.5 0 0 1 275.5 302 L 275.5 288  Z " stroke-width="1" stroke="#ffffff" fill="none" />
  <path d="M 278.857142857143 295  L 282.714285714286 298.857142857143  " stroke-width="3.85714285714286" stroke="#ffffff" fill="none" />
  <path d="M 282.714285714286 298.857142857143  L 289.142857142857 289.857142857143  " stroke-width="3.85714285714286" stroke="#ffffff" fill="none" />
</svg>