<?xml version="1.0" encoding="utf-8"?>
<svg version="1.1" xmlns:xlink="http://www.w3.org/1999/xlink" width="18px" height="18px" viewBox="275 246  18 18" xmlns="http://www.w3.org/2000/svg">
  <path d="M 275.5 248  A 1.5 1.5 0 0 1 277 246.5 L 291 246.5  A 1.5 1.5 0 0 1 292.5 248 L 292.5 262  A 1.5 1.5 0 0 1 291 263.5 L 277 263.5  A 1.5 1.5 0 0 1 275.5 262 L 275.5 248  Z " fill-rule="nonzero" fill="#f0f0f0" stroke="none" />
  <path d="M 275.5 248  A 1.5 1.5 0 0 1 277 246.5 L 291 246.5  A 1.5 1.5 0 0 1 292.5 248 L 292.5 262  A 1.5 1.5 0 0 1 291 263.5 L 277 263.5  A 1.5 1.5 0 0 1 275.5 262 L 275.5 248  Z " stroke-width="1" stroke="#0043f0" fill="none" />
</svg>