<?xml version="1.0" encoding="utf-8"?>
<svg version="1.1" xmlns:xlink="http://www.w3.org/1999/xlink" width="18px" height="18px" viewBox="271 9  18 18" xmlns="http://www.w3.org/2000/svg">
  <path d="M 271.5 11  A 1.5 1.5 0 0 1 273 9.5 L 287 9.5  A 1.5 1.5 0 0 1 288.5 11 L 288.5 25  A 1.5 1.5 0 0 1 287 26.5 L 273 26.5  A 1.5 1.5 0 0 1 271.5 25 L 271.5 11  Z " fill-rule="nonzero" fill="#f0f0f0" stroke="none" />
  <path d="M 271.5 11  A 1.5 1.5 0 0 1 273 9.5 L 287 9.5  A 1.5 1.5 0 0 1 288.5 11 L 288.5 25  A 1.5 1.5 0 0 1 287 26.5 L 273 26.5  A 1.5 1.5 0 0 1 271.5 25 L 271.5 11  Z " stroke-width="1" stroke="#0043f0" fill="none" />
</svg>