<?xml version="1.0" encoding="utf-8"?>
<svg version="1.1" xmlns:xlink="http://www.w3.org/1999/xlink" width="18px" height="18px" viewBox="282 60.5  18 18" xmlns="http://www.w3.org/2000/svg">
  <path d="M 282.5 62.5  A 1.5 1.5 0 0 1 284 61 L 298 61  A 1.5 1.5 0 0 1 299.5 62.5 L 299.5 76.5  A 1.5 1.5 0 0 1 298 78 L 284 78  A 1.5 1.5 0 0 1 282.5 76.5 L 282.5 62.5  Z " fill-rule="nonzero" fill="#ffffff" stroke="none" />
  <path d="M 282.5 62.5  A 1.5 1.5 0 0 1 284 61 L 298 61  A 1.5 1.5 0 0 1 299.5 62.5 L 299.5 76.5  A 1.5 1.5 0 0 1 298 78 L 284 78  A 1.5 1.5 0 0 1 282.5 76.5 L 282.5 62.5  Z " stroke-width="1" stroke="#0043f0" fill="none" />
</svg>