<?xml version="1.0" encoding="utf-8"?>
<svg version="1.1" xmlns:xlink="http://www.w3.org/1999/xlink" width="18px" height="18px" viewBox="275 59.5  18 18" xmlns="http://www.w3.org/2000/svg">
  <path d="M 275.5 61.5  A 1.5 1.5 0 0 1 277 60 L 291 60  A 1.5 1.5 0 0 1 292.5 61.5 L 292.5 75.5  A 1.5 1.5 0 0 1 291 77 L 277 77  A 1.5 1.5 0 0 1 275.5 75.5 L 275.5 61.5  Z " fill-rule="nonzero" fill="#ffffff" stroke="none" />
  <path d="M 275.5 61.5  A 1.5 1.5 0 0 1 277 60 L 291 60  A 1.5 1.5 0 0 1 292.5 61.5 L 292.5 75.5  A 1.5 1.5 0 0 1 291 77 L 277 77  A 1.5 1.5 0 0 1 275.5 75.5 L 275.5 61.5  Z " stroke-width="1" stroke="#0043f0" fill="none" />
</svg>