<?xml version="1.0" encoding="utf-8"?>
<svg version="1.1" xmlns:xlink="http://www.w3.org/1999/xlink" width="18px" height="18px" viewBox="282 60  18 18" xmlns="http://www.w3.org/2000/svg">
  <path d="M 282.5 62  A 1.5 1.5 0 0 1 284 60.5 L 298 60.5  A 1.5 1.5 0 0 1 299.5 62 L 299.5 76  A 1.5 1.5 0 0 1 298 77.5 L 284 77.5  A 1.5 1.5 0 0 1 282.5 76 L 282.5 62  Z " fill-rule="nonzero" fill="#0043f0" stroke="none" />
  <path d="M 282.5 62  A 1.5 1.5 0 0 1 284 60.5 L 298 60.5  A 1.5 1.5 0 0 1 299.5 62 L 299.5 76  A 1.5 1.5 0 0 1 298 77.5 L 284 77.5  A 1.5 1.5 0 0 1 282.5 76 L 282.5 62  Z " stroke-width="1" stroke="#ffffff" fill="none" />
  <path d="M 285.857142857143 69  L 289.714285714286 72.8571428571428  " stroke-width="3.85714285714286" stroke="#ffffff" fill="none" />
  <path d="M 289.714285714286 72.8571428571428  L 296.142857142857 63.8571428571429  " stroke-width="3.85714285714286" stroke="#ffffff" fill="none" />
</svg>