<?xml version="1.0" encoding="utf-8"?>
<svg version="1.1" xmlns:xlink="http://www.w3.org/1999/xlink" width="18px" height="18px" viewBox="275 59  18 18" xmlns="http://www.w3.org/2000/svg">
  <path d="M 275.5 61  A 1.5 1.5 0 0 1 277 59.5 L 291 59.5  A 1.5 1.5 0 0 1 292.5 61 L 292.5 75  A 1.5 1.5 0 0 1 291 76.5 L 277 76.5  A 1.5 1.5 0 0 1 275.5 75 L 275.5 61  Z " fill-rule="nonzero" fill="#0043f0" stroke="none" />
  <path d="M 275.5 61  A 1.5 1.5 0 0 1 277 59.5 L 291 59.5  A 1.5 1.5 0 0 1 292.5 61 L 292.5 75  A 1.5 1.5 0 0 1 291 76.5 L 277 76.5  A 1.5 1.5 0 0 1 275.5 75 L 275.5 61  Z " stroke-width="1" stroke="#ffffff" fill="none" />
  <path d="M 278.857142857143 68  L 282.714285714286 71.8571428571428  " stroke-width="3.85714285714286" stroke="#ffffff" fill="none" />
  <path d="M 282.714285714286 71.8571428571428  L 289.142857142857 62.8571428571429  " stroke-width="3.85714285714286" stroke="#ffffff" fill="none" />
</svg>