<?xml version="1.0" encoding="utf-8"?>
<svg version="1.1" xmlns:xlink="http://www.w3.org/1999/xlink" width="16px" height="16px" xmlns="http://www.w3.org/2000/svg">
  <g transform="matrix(1 0 0 1 -22 -287 )">
    <path d="M 11.602 5.087  C 12.324 5.812  10.811 7.646  9.229 9.229  C 7.646 10.811  5.812 12.325  5.087 11.6  C 4.05 10.563  3.41 9.659  1.122 11.498  C -1.165 13.336  0.591999999999999 14.562  1.597 15.566  C 2.757 16.726  7.081 15.628  11.355 11.355  C 15.628 7.081  16.723 2.757  15.562 1.597  C 14.557 0.590999999999999  13.337 -1.165  11.499 1.122  C 9.66 3.409  10.563 4.049  11.602 5.087  Z " fill-rule="nonzero" fill="#c8ac81" stroke="none" transform="matrix(1 0 0 1 22 287 )" />
  </g>
</svg>