<?xml version="1.0" encoding="utf-8"?>
<svg version="1.1" xmlns:xlink="http://www.w3.org/1999/xlink" width="22px" height="22px" xmlns="http://www.w3.org/2000/svg">
  <g transform="matrix(1 0 0 1 -64 -425 )">
    <path d="M 14.4941176470588 16.8235294117647  L 21.4823529411765 11  L 14.4941176470588 5.17647058823529  L 14.4941176470588 8.67058823529412  L 6.34117647058824 8.67058823529412  L 6.34117647058824 13.3294117647059  L 14.4941176470588 13.3294117647059  L 14.4941176470588 16.8235294117647  Z M 3 19.1529411764706  L 3 2.84705882352941  L 12.1647058823529 2.84705882352941  L 12.1647058823529 0.517647058823529  L 2.84705882352941 0.517647058823529  C 1.56588235294118 0.517647058823529  0.517647058823529 1.56588235294118  0.517647058823529 2.84705882352941  L 0.517647058823529 19.1529411764706  C 0.517647058823529 20.4341176470588  1.56588235294118 21.4823529411765  2.84705882352941 21.4823529411765  L 12.1647058823529 21.4823529411765  L 12.1647058823529 19.1529411764706  L 3 19.1529411764706  Z " fill-rule="nonzero" fill="#c8ac81" stroke="none" transform="matrix(1 0 0 1 64 425 )" />
  </g>
</svg>