<?xml version="1.0" encoding="utf-8"?>
<svg version="1.1" xmlns:xlink="http://www.w3.org/1999/xlink" width="26px" height="26px" xmlns="http://www.w3.org/2000/svg">
  <g transform="matrix(1 0 0 1 -17 -18 )">
    <path d="M 18.85325 8.266375  C 20.0265 9.4445  17.567875 12.42475  14.997125 14.997125  C 12.42475 17.567875  9.4445 20.028125  8.266375 18.85  C 6.58125 17.164875  5.54125 15.695875  1.82325 18.68425  C -1.893125 21.671  0.961999999999998 23.66325  2.595125 25.29475  C 4.480125 27.17975  11.506625 25.3955  18.451875 18.451875  C 25.3955 11.506625  27.174875 4.480125  25.28825 2.595125  C 23.655125 0.960374999999999  21.672625 -1.893125  18.685875 1.82325  C 15.6975 5.539625  17.164875 6.579625  18.85325 8.266375  Z " fill-rule="nonzero" fill="#393c3e" stroke="none" transform="matrix(1 0 0 1 17 18 )" />
  </g>
</svg>