<?xml version="1.0" encoding="utf-8"?>
<svg version="1.1" xmlns:xlink="http://www.w3.org/1999/xlink" width="26px" height="26px" xmlns="http://www.w3.org/2000/svg">
  <g transform="matrix(1 0 0 1 -21 -19 )">
    <path d="M 25.48 13  C 25.48 6.1074  19.8913 0.52  13 0.52  C 6.1061 0.52  0.518699999999999 6.1074  0.518699999999999 13  C 0.518699999999999 19.8939  6.1061 25.4813  13 25.4813  C 19.8913 25.4813  25.48 19.8939  25.48 13  Z M 11.8898 6.942  C 11.8898 6.1347  12.5645 5.0258  14.1648 5.0258  C 15.3816 5.0258  15.7391 5.7317  15.7391 6.539  C 15.7391 7.5465  14.9331 8.4786  13.5564 8.4786  C 12.4046 8.4786  11.856 7.9001  11.8898 6.942  Z M 15.9887 17.7528  C 14.0218 19.7184  11.8781 20.475  11.0474 20.475  C 10.2154 20.475  9.6083 19.9693  10.1894 17.7528  L 11.1423 13.8203  C 11.3074 13.1911  11.3347 12.9389  11.1423 12.9389  C 10.894 12.9389  9.8137 13.3731  9.1767 13.8021  L 8.762 13.1222  C 10.7835 11.4335  13.1079 10.4429  14.1024 10.4429  C 14.9344 10.4429  15.0722 11.4257  14.6575 12.9389  L 13.5655 17.0729  C 13.3718 17.8035  13.455 18.0557  13.6487 18.0557  C 13.8983 18.0557  14.7147 17.7541  15.5181 17.121  L 15.9887 17.7528  Z " fill-rule="nonzero" fill="#393c3e" stroke="none" transform="matrix(1 0 0 1 21 19 )" />
  </g>
</svg>