<?xml version="1.0" encoding="utf-8"?>
<svg version="1.1" xmlns:xlink="http://www.w3.org/1999/xlink" width="13px" height="3px" xmlns="http://www.w3.org/2000/svg">
  <g transform="matrix(1 0 0 1 -1 -6 )">
    <path d="M 8.01411764705882 1.5  C 8.01411764705882 0.679875  7.33689411764706 0.0149999999999997  6.50068823529412 0.0149999999999997  C 5.66448235294118 0.0149999999999997  4.98588235294118 0.679875  4.98588235294118 1.5  C 4.98588235294118 2.320125  5.66448235294118 2.985  6.50068823529412 2.985  C 7.33689411764706 2.985  8.01411764705882 2.320125  8.01411764705882 1.5  Z M 3.19647058823529 1.5  C 3.19647058823529 0.68055  2.51924705882353 0.0149999999999997  1.68304117647059 0.0149999999999997  C 0.846835294117647 0.0149999999999997  0.168235294117647 0.679875  0.168235294117647 1.5  C 0.168235294117647 2.320125  0.846835294117647 2.985  1.68304117647059 2.985  C 2.51924705882353 2.985  3.19647058823529 2.31945  3.19647058823529 1.5  Z M 12.8317647058824 1.5  C 12.8317647058824 0.679875  12.1545411764706 0.0149999999999997  11.3183352941176 0.0149999999999997  C 10.4821294117647 0.0149999999999997  9.80352941176471 0.679875  9.80352941176471 1.5  C 9.80352941176471 2.320125  10.4821294117647 2.985  11.3183352941176 2.985  C 12.1545411764706 2.985  12.8317647058824 2.320125  12.8317647058824 1.5  Z " fill-rule="nonzero" fill="#333333" stroke="none" transform="matrix(1 0 0 1 1 6 )" />
  </g>
</svg>