<svg version="1.1" xmlns="http://www.w3.org/2000/svg" xmlns:xlink="http://www.w3.org/1999/xlink" width="16" height="16" viewBox="0,0,256,256"><g fill="#fa5252" fill-rule="evenodd" stroke="none" stroke-width="1" stroke-linecap="butt" stroke-linejoin="miter" stroke-miterlimit="10" stroke-dasharray="" stroke-dashoffset="0" font-family="none" font-weight="none" font-size="none" text-anchor="none" style="mix-blend-mode: normal"><g transform="scale(16,16)"><path d="M3.112,5.112c-0.07823,0.19773 -0.13522,0.40322 -0.17,0.613c-1.676,0.37 -2.942,1.83 -2.942,3.593c0,2.048 1.708,3.682 3.781,3.682h7.219zM14.484,12.484l-9.547,-9.547c0.90542,-0.60931 1.97165,-0.93548 3.063,-0.937c2.69,0 4.923,2 5.166,4.579c1.592,0.225 2.834,1.558 2.834,3.194c-0.00348,1.10477 -0.57657,2.12962 -1.516,2.711M13.646,14.354l-12,-12l0.708,-0.708l12,12z"></path></g></g></svg>