<?xml version="1.0" encoding="utf-8"?>
<svg version="1.1" xmlns:xlink="http://www.w3.org/1999/xlink" width="18px" height="18px" viewBox="294 11  18 18" xmlns="http://www.w3.org/2000/svg">
  <path d="M 294.5 13  A 1.5 1.5 0 0 1 296 11.5 L 310 11.5  A 1.5 1.5 0 0 1 311.5 13 L 311.5 27  A 1.5 1.5 0 0 1 310 28.5 L 296 28.5  A 1.5 1.5 0 0 1 294.5 27 L 294.5 13  Z " fill-rule="nonzero" fill="#f0f0f0" stroke="none" />
  <path d="M 294.5 13  A 1.5 1.5 0 0 1 296 11.5 L 310 11.5  A 1.5 1.5 0 0 1 311.5 13 L 311.5 27  A 1.5 1.5 0 0 1 310 28.5 L 296 28.5  A 1.5 1.5 0 0 1 294.5 27 L 294.5 13  Z " stroke-width="1" stroke="#0043f0" fill="none" />
</svg>