<?xml version="1.0" encoding="utf-8"?>
<svg version="1.1" xmlns:xlink="http://www.w3.org/1999/xlink" width="18px" height="18px" viewBox="295 60.5  18 18" xmlns="http://www.w3.org/2000/svg">
  <path d="M 295.5 62.5  A 1.5 1.5 0 0 1 297 61 L 311 61  A 1.5 1.5 0 0 1 312.5 62.5 L 312.5 76.5  A 1.5 1.5 0 0 1 311 78 L 297 78  A 1.5 1.5 0 0 1 295.5 76.5 L 295.5 62.5  Z " fill-rule="nonzero" fill="#0043f0" stroke="none" />
  <path d="M 295.5 62.5  A 1.5 1.5 0 0 1 297 61 L 311 61  A 1.5 1.5 0 0 1 312.5 62.5 L 312.5 76.5  A 1.5 1.5 0 0 1 311 78 L 297 78  A 1.5 1.5 0 0 1 295.5 76.5 L 295.5 62.5  Z " stroke-width="1" stroke="#ffffff" fill="none" />
  <path d="M 298.857142857143 69.5  L 302.714285714286 73.3571428571428  " stroke-width="3.85714285714286" stroke="#ffffff" fill="none" />
  <path d="M 302.714285714286 73.3571428571428  L 309.142857142857 64.3571428571429  " stroke-width="3.85714285714286" stroke="#ffffff" fill="none" />
</svg>