<?xml version="1.0" encoding="utf-8"?>
<svg version="1.1" xmlns:xlink="http://www.w3.org/1999/xlink" width="29px" height="33px" xmlns="http://www.w3.org/2000/svg">
  <g transform="matrix(1 0 0 1 -13 -15 )">
    <path d="M 28 2.52352941176471  C 28.42 1.55915294117647  27.64222 0.776470588235294  26.68 1  L 2.32 1  C 1.35778 0.776470588235294  0.58 1.55740588235294  1 2.52352941176471  L 1 30.4764705882353  C 0.58 31.4408470588235  1.35778 32.2235294117647  2.32 32  L 26.68 32  C 27.64222 32.2235294117647  28.42 31.4408470588235  28 30.4764705882353  L 28 2.52352941176471  Z M 25 4.27058823529412  L 25 28.7294117647059  L 4 28.7294117647059  L 4 4.27058823529412  L 25 4.27058823529412  Z M 21.46 11.2588235294118  L 21.46 7.76470588235294  L 14.5 7.76470588235294  L 14.5 11.2588235294118  L 21.46 11.2588235294118  Z M 21.46 14.7529411764706  L 21.46 13.0058823529412  L 14.5 13.0058823529412  L 14.5 14.7529411764706  L 21.46 14.7529411764706  Z M 12.76 14.7529411764706  L 12.76 7.76470588235294  L 7.54 7.76470588235294  L 7.54 14.7529411764706  L 12.76 14.7529411764706  Z M 12.76 16.5  L 12.76 18.2470588235294  L 21.46 18.2470588235294  L 21.46 16.5  L 12.76 16.5  Z M 17.98 19.9941176470588  L 17.98 21.7411764705882  L 21.46 21.7411764705882  L 21.46 19.9941176470588  L 17.98 19.9941176470588  Z M 21.46 25  L 21.46 23  L 7.54 23  L 7.54 25  L 21.46 25  Z M 16.24 21.7411764705882  L 16.24 19.9941176470588  L 7.54 19.9941176470588  L 7.54 21.7411764705882  L 16.24 21.7411764705882  Z M 11.02 18.2470588235294  L 11.02 16.5  L 7.54 16.5  L 7.54 18.2470588235294  L 11.02 18.2470588235294  Z " fill-rule="nonzero" fill="#393c3e" stroke="none" transform="matrix(1 0 0 1 13 15 )" />
  </g>
</svg>