<?xml version="1.0" encoding="utf-8"?>
<svg version="1.1" xmlns:xlink="http://www.w3.org/1999/xlink" width="18px" height="18px" viewBox="346 60.5  18 18" xmlns="http://www.w3.org/2000/svg">
  <path d="M 346.5 62.5  A 1.5 1.5 0 0 1 348 61 L 362 61  A 1.5 1.5 0 0 1 363.5 62.5 L 363.5 76.5  A 1.5 1.5 0 0 1 362 78 L 348 78  A 1.5 1.5 0 0 1 346.5 76.5 L 346.5 62.5  Z " fill-rule="nonzero" fill="#f0f0f0" stroke="none" />
  <path d="M 346.5 62.5  A 1.5 1.5 0 0 1 348 61 L 362 61  A 1.5 1.5 0 0 1 363.5 62.5 L 363.5 76.5  A 1.5 1.5 0 0 1 362 78 L 348 78  A 1.5 1.5 0 0 1 346.5 76.5 L 346.5 62.5  Z " stroke-width="1" stroke="#0043f0" fill="none" />
  <path d="M 349.857142857143 69.5  L 353.714285714286 73.3571428571428  " stroke-width="3.85714285714286" stroke="#0043f0" fill="none" />
  <path d="M 353.714285714286 73.3571428571428  L 360.142857142857 64.3571428571429  " stroke-width="3.85714285714286" stroke="#0043f0" fill="none" />
</svg>