<?xml version="1.0" encoding="utf-8"?>
<svg version="1.1" xmlns:xlink="http://www.w3.org/1999/xlink" width="18px" height="18px" viewBox="343 60.5  18 18" xmlns="http://www.w3.org/2000/svg">
  <path d="M 343.5 62.5  A 1.5 1.5 0 0 1 345 61 L 359 61  A 1.5 1.5 0 0 1 360.5 62.5 L 360.5 76.5  A 1.5 1.5 0 0 1 359 78 L 345 78  A 1.5 1.5 0 0 1 343.5 76.5 L 343.5 62.5  Z " fill-rule="nonzero" fill="#0043f0" stroke="none" />
  <path d="M 343.5 62.5  A 1.5 1.5 0 0 1 345 61 L 359 61  A 1.5 1.5 0 0 1 360.5 62.5 L 360.5 76.5  A 1.5 1.5 0 0 1 359 78 L 345 78  A 1.5 1.5 0 0 1 343.5 76.5 L 343.5 62.5  Z " stroke-width="1" stroke="#ffffff" fill="none" />
  <path d="M 346.857142857143 69.5  L 350.714285714286 73.3571428571428  " stroke-width="3.85714285714286" stroke="#ffffff" fill="none" />
  <path d="M 350.714285714286 73.3571428571428  L 357.142857142857 64.3571428571429  " stroke-width="3.85714285714286" stroke="#ffffff" fill="none" />
</svg>