<?xml version="1.0" encoding="utf-8"?>
<svg version="1.1" xmlns:xlink="http://www.w3.org/1999/xlink" width="18px" height="18px" viewBox="345 11  18 18" xmlns="http://www.w3.org/2000/svg">
  <path d="M 345.5 13  A 1.5 1.5 0 0 1 347 11.5 L 361 11.5  A 1.5 1.5 0 0 1 362.5 13 L 362.5 27  A 1.5 1.5 0 0 1 361 28.5 L 347 28.5  A 1.5 1.5 0 0 1 345.5 27 L 345.5 13  Z " fill-rule="nonzero" fill="#f0f0f0" stroke="none" />
  <path d="M 345.5 13  A 1.5 1.5 0 0 1 347 11.5 L 361 11.5  A 1.5 1.5 0 0 1 362.5 13 L 362.5 27  A 1.5 1.5 0 0 1 361 28.5 L 347 28.5  A 1.5 1.5 0 0 1 345.5 27 L 345.5 13  Z " stroke-width="1" stroke="#0043f0" fill="none" />
</svg>