<?xml version="1.0" encoding="utf-8"?>
<svg version="1.1" xmlns:xlink="http://www.w3.org/1999/xlink" width="18px" height="18px" viewBox="345 11  18 18" xmlns="http://www.w3.org/2000/svg">
  <path d="M 345.5 13  A 1.5 1.5 0 0 1 347 11.5 L 361 11.5  A 1.5 1.5 0 0 1 362.5 13 L 362.5 27  A 1.5 1.5 0 0 1 361 28.5 L 347 28.5  A 1.5 1.5 0 0 1 345.5 27 L 345.5 13  Z " fill-rule="nonzero" fill="#0043f0" stroke="none" />
  <path d="M 345.5 13  A 1.5 1.5 0 0 1 347 11.5 L 361 11.5  A 1.5 1.5 0 0 1 362.5 13 L 362.5 27  A 1.5 1.5 0 0 1 361 28.5 L 347 28.5  A 1.5 1.5 0 0 1 345.5 27 L 345.5 13  Z " stroke-width="1" stroke="#ffffff" fill="none" />
  <path d="M 348.857142857143 20  L 352.714285714286 23.8571428571429  " stroke-width="3.85714285714286" stroke="#ffffff" fill="none" />
  <path d="M 352.714285714286 23.8571428571429  L 359.142857142857 14.8571428571429  " stroke-width="3.85714285714286" stroke="#ffffff" fill="none" />
</svg>