<svg version="1.1" xmlns="http://www.w3.org/2000/svg" xmlns:xlink="http://www.w3.org/1999/xlink" width="16" height="16" viewBox="0,0,256,256"><g fill="#821f3d" fill-rule="nonzero" stroke="none" stroke-width="1" stroke-linecap="butt" stroke-linejoin="miter" stroke-miterlimit="10" stroke-dasharray="" stroke-dashoffset="0" font-family="none" font-weight="none" font-size="none" text-anchor="none" style="mix-blend-mode: normal"><g transform="scale(16,16)"><path d="M7.5,5.5c0,-0.27614 -0.22386,-0.5 -0.5,-0.5c-0.27614,0 -0.5,0.22386 -0.5,0.5v0.634l-0.549,-0.317c-0.15479,-0.09074 -0.34632,-0.09159 -0.50191,-0.00223c-0.15558,0.08937 -0.25136,0.25524 -0.25096,0.43467c0.00039,0.17942 0.0969,0.34488 0.25287,0.43356l0.549,0.317l-0.549,0.317c-0.15598,0.08868 -0.25248,0.25414 -0.25287,0.43356c-0.00039,0.17942 0.09538,0.3453 0.25096,0.43467c0.15558,0.08937 0.34712,0.08852 0.50191,-0.00223l0.549,-0.317v0.634c0,0.27614 0.22386,0.5 0.5,0.5c0.27614,0 0.5,-0.22386 0.5,-0.5v-0.634l0.549,0.317c0.15479,0.09074 0.34632,0.09159 0.50191,0.00223c0.15558,-0.08937 0.25136,-0.25524 0.25096,-0.43467c-0.00039,-0.17942 -0.0969,-0.34488 -0.25287,-0.43356l-0.549,-0.317l0.549,-0.317c0.15598,-0.08868 0.25248,-0.25414 0.25287,-0.43356c0.00039,-0.17942 -0.09538,-0.3453 -0.25096,-0.43467c-0.15558,-0.08937 -0.34712,-0.08852 -0.50191,0.00223l-0.549,0.317zM5.5,10c-0.27614,0 -0.5,0.22386 -0.5,0.5c0,0.27614 0.22386,0.5 0.5,0.5h5c0.27614,0 0.5,-0.22386 0.5,-0.5c0,-0.27614 -0.22386,-0.5 -0.5,-0.5zM5.5,12c-0.27614,0 -0.5,0.22386 -0.5,0.5c0,0.27614 0.22386,0.5 0.5,0.5h5c0.27614,0 0.5,-0.22386 0.5,-0.5c0,-0.27614 -0.22386,-0.5 -0.5,-0.5z"></path><path d="M14,14v-9.5l-4.5,-4.5h-5.5c-1.10457,0 -2,0.89543 -2,2v12c0,1.10457 0.89543,2 2,2h8c1.10457,0 2,-0.89543 2,-2M9.5,3c0,0.82843 0.67157,1.5 1.5,1.5h2v9.5c0,0.55228 -0.44772,1 -1,1h-8c-0.55228,0 -1,-0.44772 -1,-1v-12c0,-0.55228 0.44772,-1 1,-1h5.5z"></path></g></g></svg>