<?xml version="1.0" encoding="utf-8"?>
<svg version="1.1" xmlns:xlink="http://www.w3.org/1999/xlink" width="14px" height="14px" viewBox="18 257  14 14" xmlns="http://www.w3.org/2000/svg">
  <path d="M 18.5 259  A 1.5 1.5 0 0 1 20 257.5 L 30 257.5  A 1.5 1.5 0 0 1 31.5 259 L 31.5 269  A 1.5 1.5 0 0 1 30 270.5 L 20 270.5  A 1.5 1.5 0 0 1 18.5 269 L 18.5 259  Z " fill-rule="nonzero" fill="#ffffff" stroke="none" />
  <path d="M 18.5 259  A 1.5 1.5 0 0 1 20 257.5 L 30 257.5  A 1.5 1.5 0 0 1 31.5 259 L 31.5 269  A 1.5 1.5 0 0 1 30 270.5 L 20 270.5  A 1.5 1.5 0 0 1 18.5 269 L 18.5 259  Z " stroke-width="1" stroke="#0043f0" fill="none" />
</svg>