<?xml version="1.0" encoding="utf-8"?>
<svg version="1.1" xmlns:xlink="http://www.w3.org/1999/xlink" width="16px" height="16px" xmlns="http://www.w3.org/2000/svg">
  <g transform="matrix(1 0 0 1 -22 -368 )">
    <path d="M 15.68 8  C 15.68 3.7584  12.2408 0.32  8 0.32  C 3.7576 0.32  0.319199999999999 3.7584  0.319199999999999 8  C 0.319199999999999 12.2424  3.7576 15.6808  8 15.6808  C 12.2408 15.6808  15.68 12.2424  15.68 8  Z M 7.3168 4.272  C 7.3168 3.7752  7.732 3.0928  8.7168 3.0928  C 9.4656 3.0928  9.6856 3.5272  9.6856 4.024  C 9.6856 4.644  9.1896 5.2176  8.3424 5.2176  C 7.6336 5.2176  7.296 4.8616  7.3168 4.272  Z M 9.8392 10.9248  C 8.6288 12.1344  7.3096 12.6  6.7984 12.6  C 6.2864 12.6  5.9128 12.2888  6.2704 10.9248  L 6.8568 8.5048  C 6.9584 8.1176  6.9752 7.9624  6.8568 7.9624  C 6.704 7.9624  6.0392 8.2296  5.6472 8.4936  L 5.392 8.0752  C 6.636 7.036  8.0664 6.4264  8.6784 6.4264  C 9.1904 6.4264  9.2752 7.0312  9.02 7.9624  L 8.348 10.5064  C 8.2288 10.956  8.28 11.1112  8.3992 11.1112  C 8.5528 11.1112  9.0552 10.9256  9.5496 10.536  L 9.8392 10.9248  Z " fill-rule="nonzero" fill="#c8ac81" stroke="none" transform="matrix(1 0 0 1 22 368 )" />
  </g>
</svg>