<?xml version="1.0" encoding="utf-8"?>
<svg version="1.1" xmlns:xlink="http://www.w3.org/1999/xlink" width="19px" height="22px" xmlns="http://www.w3.org/2000/svg">
  <g transform="matrix(1 0 0 1 -22 -325 )">
    <path d="M 18.62 1.68235294117647  C 18.62 1.03943529411765  18.11042 0.517647058823529  17.48 0.517647058823529  L 1.52 0.517647058823529  C 0.88958 0.517647058823529  0.38 1.03827058823529  0.38 1.68235294117647  L 0.38 20.3176470588235  C 0.38 20.9605647058824  0.88958 21.4823529411765  1.52 21.4823529411765  L 17.48 21.4823529411765  C 18.11042 21.4823529411765  18.62 20.9605647058824  18.62 20.3176470588235  L 18.62 1.68235294117647  Z M 16 3  L 16 19  L 3 19  L 3 3  L 16 3  Z M 14.06 7.50588235294118  L 14.06 5.17647058823529  L 9.5 5.17647058823529  L 9.5 7.50588235294118  L 14.06 7.50588235294118  Z M 14.06 9.83529411764706  L 14.06 8.67058823529412  L 9.5 8.67058823529412  L 9.5 9.83529411764706  L 14.06 9.83529411764706  Z M 8.36 9.83529411764706  L 8.36 5.17647058823529  L 4.94 5.17647058823529  L 4.94 9.83529411764706  L 8.36 9.83529411764706  Z M 8.36 11  L 8.36 12.1647058823529  L 14.06 12.1647058823529  L 14.06 11  L 8.36 11  Z M 11.78 13.3294117647059  L 11.78 14.4941176470588  L 14.06 14.4941176470588  L 14.06 13.3294117647059  L 11.78 13.3294117647059  Z M 14.06 16.8235294117647  L 14.06 15.6588235294118  L 4.94 15.6588235294118  L 4.94 16.8235294117647  L 14.06 16.8235294117647  Z M 10.64 14.4941176470588  L 10.64 13.3294117647059  L 4.94 13.3294117647059  L 4.94 14.4941176470588  L 10.64 14.4941176470588  Z M 7.22 12.1647058823529  L 7.22 11  L 4.94 11  L 4.94 12.1647058823529  L 7.22 12.1647058823529  Z " fill-rule="nonzero" fill="#c8ac81" stroke="none" transform="matrix(1 0 0 1 22 325 )" />
  </g>
</svg>