<?xml version="1.0" encoding="utf-8"?>
<svg version="1.1" xmlns:xlink="http://www.w3.org/1999/xlink" width="17px" height="19px" xmlns="http://www.w3.org/2000/svg">
  <g transform="matrix(1 0 0 1 -159 -394 )">
    <path d="M 0 7.125  L 0 6  L 17 6  L 17 7.125  L 0 7.125  Z M 3.64285714285714 4.75  L 3.64285714285714 0  L 4.85714285714286 0  L 4.85714285714286 4.75  L 3.64285714285714 4.75  Z M 12.1428571428571 4.75  L 12.1428571428571 0  L 13.3571428571429 0  L 13.3571428571429 4.75  L 12.1428571428571 4.75  Z M 0 17.21875  L 0 2.96875  C 0 1.9849927893639  0.815481348522483 1.1875  1.82142857142857 1.1875  L 15.1785714285714 1.1875  C 16.1845186514775 1.1875  17 1.9849927893639  17 2.96875  L 17 17.21875  C 17 18.2025072106361  16.1845186514775 19  15.1785714285714 19  L 1.82142857142857 19  C 0.815481348522483 19  0 18.2025072106361  0 17.21875  Z M 1.82142857142857 2.375  C 1.48611283045988 2.375  1.21428571428571 2.64083092978797  1.21428571428571 2.96875  L 1.21428571428571 17.21875  C 1.21428571428571 17.546669070212  1.48611283045988 17.8125  1.82142857142857 17.8125  L 15.1785714285714 17.8125  C 15.5138871695401 17.8125  15.7857142857143 17.546669070212  15.7857142857143 17.21875  L 15.7857142857143 2.96875  C 15.7857142857143 2.64083092978797  15.5138871695401 2.375  15.1785714285714 2.375  L 1.82142857142857 2.375  Z " fill-rule="nonzero" fill="#161616" stroke="none" transform="matrix(1 0 0 1 159 394 )" />
  </g>
</svg>