<?xml version="1.0" encoding="utf-8"?>
<svg version="1.1" xmlns:xlink="http://www.w3.org/1999/xlink" width="16px" height="18px" xmlns="http://www.w3.org/2000/svg">
  <g transform="matrix(1 0 0 1 -302 -16 )">
    <path d="M 15.6818181818182 6.90340909090909  C 15.8939393939394 7.14204545454545  16 7.43181818181818  16 7.77272727272727  L 16 10.2272727272727  C 16 10.5681818181818  15.8939393939394 10.8579545454545  15.6818181818182 11.0965909090909  C 15.469696969697 11.3352272727273  15.2121212121212 11.4545454545455  14.9090909090909 11.4545454545455  L 10.1818181818182 11.4545454545455  L 10.1818181818182 16.7727272727273  C 10.1818181818182 17.1136363636364  10.0757575757576 17.4034090909091  9.86363636363636 17.6420454545455  C 9.65151515151515 17.8806818181818  9.39393939393939 18  9.09090909090909 18  L 6.90909090909091 18  C 6.60606060606061 18  6.34848484848485 17.8806818181818  6.13636363636364 17.6420454545455  C 5.92424242424242 17.4034090909091  5.81818181818182 17.1136363636364  5.81818181818182 16.7727272727273  L 5.81818181818182 11.4545454545455  L 1.09090909090909 11.4545454545455  C 0.787878787878788 11.4545454545455  0.53030303030303 11.3352272727273  0.318181818181818 11.0965909090909  C 0.106060606060606 10.8579545454545  0 10.5681818181818  0 10.2272727272727  L 0 7.77272727272727  C 0 7.43181818181818  0.106060606060606 7.14204545454545  0.318181818181818 6.90340909090909  C 0.53030303030303 6.66477272727273  0.787878787878788 6.54545454545455  1.09090909090909 6.54545454545455  L 5.81818181818182 6.54545454545455  L 5.81818181818182 1.22727272727273  C 5.81818181818182 0.886363636363636  5.92424242424242 0.596590909090908  6.13636363636364 0.357954545454546  C 6.34848484848485 0.119318181818181  6.60606060606061 0  6.90909090909091 0  L 9.09090909090909 0  C 9.39393939393939 0  9.65151515151515 0.119318181818181  9.86363636363636 0.357954545454546  C 10.0757575757576 0.596590909090908  10.1818181818182 0.886363636363636  10.1818181818182 1.22727272727273  L 10.1818181818182 6.54545454545455  L 14.9090909090909 6.54545454545455  C 15.2121212121212 6.54545454545455  15.469696969697 6.66477272727273  15.6818181818182 6.90340909090909  Z " fill-rule="nonzero" fill="#000000" stroke="none" transform="matrix(1 0 0 1 302 16 )" />
  </g>
</svg>