<?xml version="1.0" encoding="utf-8"?>
<svg version="1.1" xmlns:xlink="http://www.w3.org/1999/xlink" width="99px" height="87px" xmlns="http://www.w3.org/2000/svg">
  <g>
    <path d="M 0 0  L 99 0  L 99 87  L 0 87  L 0 0  " fill-rule="nonzero" fill="#cccccc" stroke="none" />
    <path d="M 6 6  L 93 6  L 93 81  L 6 81  L 6 6  " fill-rule="nonzero" fill="#ffffff" stroke="none" />
    <path d="M 58.005 26.1  C 54.351 26.1  51.48 23.229  51.48 19.575  C 51.48 15.921  54.351 13.05  58.005 13.05  C 61.659 13.05  64.53 15.921  64.53 19.575  C 64.53 23.229  61.659 26.1  58.005 26.1  " fill-rule="nonzero" fill="#cccccc" stroke="none" />
    <path d="M 8 79  L 8 39.95  L 28.75 22.2  L 57.8 41.5636363636364  L 74.4 32.85  L 91 41.5636363636364  L 91 79  L 8 79  " fill-rule="nonzero" fill="#169bd5" stroke="none" />
  </g>
</svg>