<?xml version="1.0" encoding="utf-8"?>
<svg version="1.1" xmlns:xlink="http://www.w3.org/1999/xlink" width="300px" height="227px" xmlns="http://www.w3.org/2000/svg">
  <g transform="matrix(1 0 0 1 -33 -47 )">
    <path d="M 33 47  L 333 47  L 333 274  L 33 274  L 33 47  " fill-rule="nonzero" fill="#cccccc" stroke="none" />
    <path d="M 49 63  L 317 63  L 317 258  L 49 258  L 49 63  " fill-rule="nonzero" fill="#ffffff" stroke="none" />
    <path d="M 206.025 115.1  C 196.491 115.1  189 107.609  189 98.075  C 189 88.541  196.491 81.05  206.025 81.05  C 215.559 81.05  223.05 88.541  223.05 98.075  C 223.05 107.609  215.559 115.1  206.025 115.1  " fill-rule="nonzero" fill="#cccccc" stroke="none" />
    <path d="M 55 253  L 55 151.8  L 119.25 105.8  L 209.2 169.464  L 260.6 133.4  L 312 169.464  L 312 253  L 55 253  " fill-rule="nonzero" fill="#169bd5" stroke="none" />
  </g>
</svg>