<?xml version="1.0" encoding="utf-8"?>
<svg version="1.1" xmlns:xlink="http://www.w3.org/1999/xlink" width="18px" height="18px" viewBox="275 11  18 18" xmlns="http://www.w3.org/2000/svg">
  <path d="M 275.5 13  A 1.5 1.5 0 0 1 277 11.5 L 291 11.5  A 1.5 1.5 0 0 1 292.5 13 L 292.5 27  A 1.5 1.5 0 0 1 291 28.5 L 277 28.5  A 1.5 1.5 0 0 1 275.5 27 L 275.5 13  Z " fill-rule="nonzero" fill="#f0f0f0" stroke="none" />
  <path d="M 275.5 13  A 1.5 1.5 0 0 1 277 11.5 L 291 11.5  A 1.5 1.5 0 0 1 292.5 13 L 292.5 27  A 1.5 1.5 0 0 1 291 28.5 L 277 28.5  A 1.5 1.5 0 0 1 275.5 27 L 275.5 13  Z " stroke-width="1" stroke="#0043f0" fill="none" />
  <path d="M 278.857142857143 20  L 282.714285714286 23.8571428571429  " stroke-width="3.85714285714286" stroke="#0043f0" fill="none" />
  <path d="M 282.714285714286 23.8571428571429  L 289.142857142857 14.8571428571429  " stroke-width="3.85714285714286" stroke="#0043f0" fill="none" />
</svg>