<?xml version="1.0" encoding="utf-8"?>
<svg version="1.1" xmlns:xlink="http://www.w3.org/1999/xlink" width="20px" height="17px" xmlns="http://www.w3.org/2000/svg">
  <g transform="matrix(1 0 0 1 -150 -178 )">
    <path d="M 160 178  C 165.6 178  170 181.74  170 186.5  C 170 191.26  165.6 195  160 195  C 154.4 195  150 191.26  150 186.5  C 150 181.74  154.4 178  160 178  Z " fill-rule="nonzero" fill="#9fd16c" stroke="none" />
    <path d="M 160 178.5  C 165.32 178.5  169.5 182.02  169.5 186.5  C 169.5 190.98  165.32 194.5  160 194.5  C 154.68 194.5  150.5 190.98  150.5 186.5  C 150.5 182.02  154.68 178.5  160 178.5  Z " stroke-width="1" stroke="#797979" fill="none" />
  </g>
</svg>