<?xml version="1.0" encoding="utf-8"?>
<svg version="1.1" xmlns:xlink="http://www.w3.org/1999/xlink" width="257px" height="200px" xmlns="http://www.w3.org/2000/svg">
  <g transform="matrix(1 0 0 1 -33 -47 )">
    <path d="M 33 47  L 290 47  L 290 247  L 33 247  L 33 47  " fill-rule="nonzero" fill="#cccccc" stroke="none" />
    <path d="M 47 61  L 276 61  L 276 233  L 47 233  L 47 61  " fill-rule="nonzero" fill="#ffffff" stroke="none" />
    <path d="M 181.64 107  C 173.24 107  166.64 100.4  166.64 92  C 166.64 83.6  173.24 77  181.64 77  C 190.04 77  196.64 83.6  196.64 92  C 196.64 100.4  190.04 107  181.64 107  " fill-rule="nonzero" fill="#cccccc" stroke="none" />
    <path d="M 52 228  L 52 138.9  L 106.75 98.4  L 183.4 152.357976653696  L 227.2 122.7  L 271 152.357976653696  L 271 228  L 52 228  " fill-rule="nonzero" fill="#169bd5" stroke="none" />
  </g>
</svg>